# xmcd
# 
# Track frame offsets:
#     187
#     20064
#     49104
#     89114
#     140224
#     160109
# 
# Disc length: 2378
# 
# Revision: 0
# Processed by: cddbd v1.5.2PL0 Copyright (c) Steve Scherf et al.
# Submitted via: BonkEnc v1.0.8
# 
DISCID=54094806
DTITLE=Roy Haynes, Phineas Newborn, Paul Chambers - We Three
DYEAR=1958
DGENRE=Jazz
TTITLE0=Reflection
TTITLE1=Sugar Ray
TTITLE2=Solitaire
TTITLE3=After Hours
TTITLE4=Sneakin' Around
TTITLE5=Tadd's Delight
EXTD=
EXTT0=
EXTT1=
EXTT2=
EXTT3=
EXTT4=
EXTT5=
PLAYORDER=
